<?xml version="1.0" encoding="UTF-8"?>
<svg xmlns="http://www.w3.org/2000/svg" xmlns:xlink="http://www.w3.org/1999/xlink" width="375pt" height="374.999991pt" viewBox="0 0 375 374.999991" version="1.2">
<defs>
<clipPath id="clip1">
  <path d="M 112.5 112.5 L 262.5 112.5 L 262.5 262.5 L 112.5 262.5 Z M 112.5 112.5 "/>
</clipPath>
</defs>
<g id="surface1">
<rect x="0" y="0" width="375" height="374.999991" style="fill:rgb(100%,100%,100%);fill-opacity:1;stroke:none;"/>
<rect x="0" y="0" width="375" height="374.999991" style="fill:rgb(100%,100%,100%);fill-opacity:1;stroke:none;"/>
<rect x="0" y="0" width="375" height="374.999991" style="fill:rgb(97.24884%,97.24884%,97.24884%);fill-opacity:1;stroke:none;"/>
<g clip-path="url(#clip1)" clip-rule="nonzero">
<path style=" stroke:none;fill-rule:nonzero;fill:rgb(65.098572%,65.098572%,65.098572%);fill-opacity:1;" d="M 194.453125 199.976562 L 194.453125 224.28125 C 194.453125 227.917969 191.761719 231.246094 187.980469 231.550781 C 185.914062 231.710938 183.863281 230.925781 182.613281 229.5 C 181.347656 228.234375 180.546875 226.503906 180.546875 224.613281 L 180.546875 199.816406 C 180.546875 196.808594 178.03125 194.292969 175.023438 194.292969 L 150.238281 194.292969 C 148.347656 194.292969 146.605469 193.503906 145.339844 192.242188 C 143.925781 190.816406 143.128906 188.925781 143.289062 186.875 C 143.609375 183.238281 146.921875 180.390625 150.546875 180.390625 L 175.023438 180.390625 C 178.03125 180.390625 180.546875 177.871094 180.546875 174.863281 L 180.546875 150.398438 C 180.546875 146.285156 184.023438 143.128906 188.125 143.449219 C 191.761719 143.769531 194.453125 147.082031 194.453125 150.707031 L 194.453125 175.183594 C 194.453125 178.191406 196.980469 180.707031 199.976562 180.707031 L 224.761719 180.707031 C 228.875 180.707031 232.019531 184.183594 231.710938 188.285156 C 231.390625 191.921875 228.074219 194.609375 224.453125 194.609375 L 199.976562 194.609375 C 196.980469 194.453125 194.453125 196.980469 194.453125 199.976562 Z M 187.5 112.5 C 146.125 112.5 112.5 146.125 112.5 187.5 C 112.5 228.875 146.125 262.5 187.5 262.5 C 228.875 262.5 262.5 228.875 262.5 187.5 C 262.5 146.125 228.875 112.5 187.5 112.5 "/>
</g>
</g>
</svg>
